<svg width="21" height="20" viewBox="0 0 21 20" fill="none" xmlns="http://www.w3.org/2000/svg">
<g id="IOS Arrow RTL / undefined / Glyph: undefined">
<g id="Vector">
<mask id="path-1-inside-1_2037_6905" fill="white">
<path d="M6.56077 3.07216C6.24477 2.73757 6.25977 2.21014 6.59444 1.89413C6.92902 1.57811 7.45644 1.59317 7.77244 1.92777L14.856 9.42779C15.1594 9.74888 15.1594 10.251 14.8561 10.5721L7.77244 18.0733C7.45652 18.408 6.92911 18.423 6.59444 18.107C6.25986 17.791 6.24469 17.2636 6.56069 16.929L13.1039 10L6.56077 3.07216Z"/>
</mask>
<path d="M6.56077 3.07216C6.24477 2.73757 6.25977 2.21014 6.59444 1.89413C6.92902 1.57811 7.45644 1.59317 7.77244 1.92777L14.856 9.42779C15.1594 9.74888 15.1594 10.251 14.8561 10.5721L7.77244 18.0733C7.45652 18.408 6.92911 18.423 6.59444 18.107C6.25986 17.791 6.24469 17.2636 6.56069 16.929L13.1039 10L6.56077 3.07216Z" fill="#212121"/>
<path d="M6.56077 3.07216L3.65271 5.81864L3.65276 5.81869L6.56077 3.07216ZM6.59444 1.89413L9.34067 4.80243L9.34103 4.80209L6.59444 1.89413ZM7.77244 1.92777L4.86434 4.67421L4.86443 4.67431L7.77244 1.92777ZM14.856 9.42779L11.948 12.1743L11.9484 12.1747L14.856 9.42779ZM14.8561 10.5721L17.7643 13.3185L17.7645 13.3183L14.8561 10.5721ZM7.77244 18.0733L4.86424 15.327L4.8637 15.3275L7.77244 18.0733ZM6.59444 18.107L3.84792 21.0151L3.84829 21.0154L6.59444 18.107ZM6.56069 16.929L9.46872 19.6756L9.46891 19.6754L6.56069 16.929ZM13.1039 10L16.0122 12.7464L18.6058 9.99984L16.012 7.25351L13.1039 10ZM9.46884 0.325682C10.6693 1.59681 10.6128 3.60122 9.34067 4.80243L3.84821 -1.01417C1.90678 0.81907 1.82021 3.87833 3.65271 5.81864L9.46884 0.325682ZM9.34103 4.80209C8.06958 6.00299 6.06525 5.94581 4.86434 4.67421L10.6805 -0.818673C8.84763 -2.75947 5.78847 -2.84677 3.84785 -1.01383L9.34103 4.80209ZM4.86443 4.67431L11.948 12.1743L17.764 6.68125L10.6804 -0.818771L4.86443 4.67431ZM11.9484 12.1747C10.7951 10.954 10.7956 9.04616 11.9477 7.82599L17.7645 13.3183C19.5231 11.4558 19.5236 8.54379 17.7637 6.68088L11.9484 12.1747ZM11.9479 7.82579L4.86424 15.327L10.6806 20.8196L17.7643 13.3185L11.9479 7.82579ZM4.8637 15.3275C6.065 14.0549 8.06952 13.9985 9.34059 15.1987L3.84829 21.0154C5.7887 22.8476 8.84805 22.761 10.6812 20.8191L4.8637 15.3275ZM9.34096 15.199C10.6118 16.3993 10.6702 18.4034 9.46872 19.6756L3.65266 14.1825C1.81919 16.1238 1.90793 19.1828 3.84792 21.0151L9.34096 15.199ZM9.46891 19.6754L16.0122 12.7464L10.1957 7.25373L3.65247 14.1827L9.46891 19.6754ZM16.012 7.25351L9.46879 0.32563L3.65276 5.81869L10.1959 12.7466L16.012 7.25351Z" fill="white" mask="url(#path-1-inside-1_2037_6905)"/>
</g>
</g>
</svg>
