<svg width="21" height="16" viewBox="0 0 21 16" fill="none" xmlns="http://www.w3.org/2000/svg">
<g id="South Africa (ZA)" clip-path="url(#clip0_1884_7205)">
<g id="Clip path group">
<mask id="mask0_1884_7205" style="mask-type:luminance" maskUnits="userSpaceOnUse" x="0" y="0" width="21" height="16">
<g id="a">
<path id="Vector" d="M0.499817 0.5H20.5004V15.4997H0.499817V0.5Z" fill="white"/>
</g>
</mask>
<g mask="url(#mask0_1884_7205)">
<g id="Group">
<g id="Group_2">
<path id="Vector_2" fill-rule="evenodd" clip-rule="evenodd" d="M0.499847 12.447V3.55847L7.11787 8.00271L0.496918 12.447H0.499847Z" fill="black" fill-opacity="0.5"/>
<path id="Vector_3" fill-rule="evenodd" clip-rule="evenodd" d="M5.0144 15.5026L12.4439 10.5046H22.9964V15.4996H5.0144V15.5026Z" fill="#0000CC"/>
<path id="Vector_4" fill-rule="evenodd" clip-rule="evenodd" d="M4.53979 0.499999H22.9964V5.5038H12.441C12.441 5.5038 4.63647 0.450196 4.53979 0.499999Z" fill="#FF0000"/>
<path id="Vector_5" fill-rule="evenodd" clip-rule="evenodd" d="M0.499847 2.375V3.55857L7.11787 7.99988L0.496918 12.4471V13.6277L8.8317 8.00281L0.496918 2.375H0.499847Z" fill="#FFCC00"/>
<path id="Vector_6" fill-rule="evenodd" clip-rule="evenodd" d="M0.499847 2.37496V0.5H3.28299L12.107 6.47643H22.9994V9.5291H12.107L3.28006 15.4997H0.499847V13.6276L8.8317 8.00277L0.502777 2.37496H0.499847Z" fill="#009933"/>
<path id="Vector_7" fill-rule="evenodd" clip-rule="evenodd" d="M3.28006 0.5H5.0144L12.4439 5.50087H22.9964V6.47644H12.107L3.28006 0.50293V0.5ZM3.28006 15.5026H5.0144L12.4439 10.5047H22.9964V9.53203H12.107L3.28006 15.4997V15.5026Z" fill="white"/>
</g>
</g>
</g>
</g>
</g>
<defs>
<clipPath id="clip0_1884_7205">
<rect width="20" height="15" fill="white" transform="translate(0.5 0.5)"/>
</clipPath>
</defs>
</svg>
